# xmcd
#
# Track frame offsets:
#  150
#  12390
#  25417
#  39332
#  50975
#  61077
#  70112
#  81727
#  100597
#  110680
#  122010
#  131060
#  146105
#  160605
#  180387
#  190900
#  206907
#  222547
#
# Disc length: 3186 seconds
#
# Revision: 0
# Processed by: cddbd v1.5.1PL0 Copyright (c) Steve Scherf et al.
# Submitted via: Collectorz.com Music Collector 6.9
#
DISCID=100c7012
DTITLE=lyle lovett - I Love Everybody
DYEAR=1994
DGENRE=Country
TTITLE0=Skinny Legs
TTITLE1=Fat Babies
TTITLE2=I Think You Know What I Mean
TTITLE3=Hello Grandma
TTITLE4=Creeps Like Me
TTITLE5=Sonja
TTITLE6=They Don't Like Me
TTITLE7=Record Lady
TTITLE8=Ain't It Something
TTITLE9=Penguins
TTITLE10=The Fat Girl
TTITLE11=La To The Left
TTITLE12=Old Friend
TTITLE13=Just The Morning
TTITLE14=Moon On My Shoulder
TTITLE15=I've Got The Blues
TTITLE16=Good-Bye To Carolina
TTITLE17=I Love Everybody
EXTD=
EXTT0=
EXTT1=
EXTT2=
EXTT3=
EXTT4=
EXTT5=
EXTT6=
EXTT7=
EXTT8=
EXTT9=
EXTT10=
EXTT11=
EXTT12=
EXTT13=
EXTT14=
EXTT15=
EXTT16=
EXTT17=
PLAYORDER=
